:SAMPLES-PER-SECOND 30
:FRAME-RANGE 1-3358
:FULLY-SPECIFIED
:DEGREES
2414
root  -24.7842 38.3401 -70.0256 5.26843 -11.5146 -2.14337
RightUpLeg  8.08789 -8.64344 0.570991
RightLeg  15.9522 -6.98489 -1.55627
RightFoot  -21.0854 0.679933 9.63829
RightToes  -1.11029e-010 1.2921e-014 -6.02303e-014
Spine  -4.24698 2.96905 9.58317
Spine1  9.42747 4.77263 -8.53081
HEad  12.4233 -3.91249 -4.94558
LeftShoulder1  0.0832735 3.01227 -22.4601
LeftArm  -9.10404 21.0932 -43.9957
LeftForeArm  22.7091 0.292495 -10.0346
LeftHand  -0.0606652 3.17105 2.36598
RightShoulder  2.09354 5.38119 17.6019
RightArm  -7.86519 37.1671 54.5124
RightForeArm  52.2568 5.93864 10.4058
RightHand  -0.0299644 -5.27097 -12.582
LeftUpLeg  -29.326 -4.00803 -2.55072
LeftLeg  1.30156 19.7402 2.60688
LeftFoot  -5.00575 0.0930873 -1.138
LeftToes  -1.90334e-010 -8.83595e-011 4.99953e-011
2415
root  -25.2789 38.1219 -68.6451 5.09363 -11.5464 -1.91473
RightUpLeg  9.52349 -9.15385 0.204051
RightLeg  18.3453 -5.22042 -2.02091
RightFoot  -21.4434 0.892487 11.7123
RightToes  -1.11029e-010 1.2921e-014 -6.02303e-014
Spine  -4.65711 3.61118 8.93825
Spine1  10.1068 5.73444 -9.28731
HEad  11.6496 -5.8933 -3.62296
LeftShoulder1  0.053036 3.11628 -22.1696
LeftArm  -9.72738 20.9337 -44.1675
LeftForeArm  21.7409 -0.252353 -9.80133
LeftHand  -0.0549765 2.91216 1.94833
RightShoulder  2.15802 5.84423 17.0479
RightArm  -6.68284 38.854 55.3852
RightForeArm  52.4475 5.971 10.5955
RightHand  -0.0139021 -5.41593 -13.2674
LeftUpLeg  -30.252 -3.48975 -2.61013
LeftLeg  6.33945 19.5446 3.69953
LeftFoot  -4.23852 -0.00820589 0.543817
LeftToes  -1.90334e-010 -8.83595e-011 4.99953e-011
2416
root  -25.7087 38.0226 -67.2872 4.86694 -12.3858 -1.00439
RightUpLeg  9.41516 -6.80811 -0.687899
RightLeg  23.0653 -4.46837 -2.3012
RightFoot  -20.7106 1.08292 14.8625
RightToes  -1.11029e-010 1.2921e-014 -6.02303e-014
Spine  -4.92327 4.21631 7.49673
Spine1  11.0131 6.89938 -10.7303
HEad  10.7709 -7.23957 -2.2504
LeftShoulder1  -0.0488231 3.47592 -22.1991
LeftArm  -10.6389 21.2075 -43.5816
LeftForeArm  18.759 -1.17547 -9.41034
LeftHand  -0.0510215 2.58316 1.5744
RightShoulder  2.21432 6.26225 16.5712
RightArm  -6.32651 40.5424 57.028
RightForeArm  54.9322 5.2819 10.5695
RightHand  -0.0526137 -5.0749 -13.6912
LeftUpLeg  -30.6038 -3.44345 -3.05323
LeftLeg  10.2702 20.8278 5.26583
LeftFoot  1.14638 -0.225134 1.9944
LeftToes  -1.90334e-010 -8.83595e-011 4.99953e-011
2417
root  -26.1031 37.8968 -65.9017 4.62915 -11.5844 0.183472
RightUpLeg  7.38058 -6.24311 -2.32287
RightLeg  31.4593 -2.13957 -1.65075
RightFoot  -18.3223 1.03717 18.8973
RightToes  -1.11029e-010 1.2921e-014 -6.02303e-014
Spine  -4.99205 4.14313 5.58877
Spine1  11.1816 7.06582 -11.6294
HEad  10.3237 -8.72854 -1.4319
LeftShoulder1  0.00616269 3.2822 -22.6342
LeftArm  -11.2623 20.6123 -42.3738
LeftForeArm  14.9426 -0.776839 -9.01805
LeftHand  -0.0601286 2.18091 1.78819
RightShoulder  2.26091 6.6135 16.193
RightArm  -6.41766 41.8106 58.6969
RightForeArm  57.4989 4.06612 10.3755
RightHand  -0.0491842 -5.11704 -14.6605
LeftUpLeg  -31.1985 -2.84861 -4.31361
LeftLeg  14.9616 18.885 5.88978
LeftFoot  3.79718 -0.270114 1.85943
LeftToes  -1.90334e-010 -8.83595e-011 4.99953e-011
2418
root  -26.4443 37.8859 -64.5366 4.47534 -8.77319 0.699585
RightUpLeg  3.43841 -7.85953 -3.53062
RightLeg  42.4211 -0.346779 -0.631263
RightFoot  -11.3671 -0.0730367 21.4201
RightToes  -1.11029e-010 1.2921e-014 -6.02303e-014
Spine  -5.03187 3.6347 4.72022
Spine1  11.2233 6.6534 -11.9707
HEad  10.9276 -11.3933 -1.74553
LeftShoulder1  0.237698 2.47104 -22.4354
LeftArm  -12.7177 18.8172 -42.3585
LeftForeArm  12.1872 0.987277 -8.31858
LeftHand  -0.0545182 2.35631 1.63782
RightShoulder  2.21784 6.85025 15.1476
RightArm  -6.50759 42.8421 59.426
RightForeArm  59.2509 2.2721 9.97892
RightHand  -0.0896022 -4.8278 -15.8191
LeftUpLeg  -30.9463 -2.41587 -5.81886
LeftLeg  18.6982 15.5752 6.0741
LeftFoot  2.78745 -0.26442 1.99743
LeftToes  -1.90334e-010 -8.83595e-011 4.99953e-011
2419
root  -26.7545 37.9607 -63.1968 3.9353 -5.97308 0.608521
RightUpLeg  -1.7995 -9.47766 -3.71279
RightLeg  54.1482 -0.752108 -1.52195
RightFoot  -0.99544 -1.65824 18.1013
RightToes  -1.11029e-010 1.2921e-014 -6.02303e-014
Spine  -4.88924 3.32439 4.69172
Spine1  11.5243 6.42615 -11.9429
HEad  12.6555 -14.3858 -2.99665
LeftShoulder1  0.392599 1.90926 -22.0267
LeftArm  -13.7297 16.4819 -42.7936
LeftForeArm  10.1963 2.32714 -7.82381
LeftHand  -0.032675 2.50782 0.78846
RightShoulder  2.18382 7.05481 14.3137
RightArm  -5.91234 44.0717 58.4701
RightForeArm  62.2018 1.20583 10.1833
RightHand  -0.0747387 -4.93564 -15.6801
LeftUpLeg  -29.5743 -2.48015 -6.49794
LeftLeg  21.291 12.6677 5.71346
LeftFoot  1.66089 -0.513458 4.4154
LeftToes  -1.90334e-010 -8.83595e-011 4.99953e-011
2420
root  -27.0511 37.9975 -61.9497 3.09326 -3.33698 0.728455
RightUpLeg  -6.67553 -10.2591 -3.4636
RightLeg  63.1849 -1.41162 -3.61321
RightFoot  5.39343 -1.77661 12.2885
RightToes  -1.11029e-010 1.2921e-014 -6.02303e-014
Spine  -4.40453 3.11435 3.98827
Spine1  11.8612 6.15003 -11.535
HEad  15.2039 -16.9755 -4.38675
LeftShoulder1  0.427955 1.78017 -21.9593
LeftArm  -14.1775 14.1864 -42.7786
LeftForeArm  7.94445 2.49632 -7.56945
LeftHand  -0.0272887 2.44713 0.566569
RightShoulder  2.17669 7.23523 13.843
RightArm  -5.92892 45.3524 56.9949
RightForeArm  66.3195 0.0388603 10.137
RightHand  -0.0574047 -5.06198 -15.3848
LeftUpLeg  -27.9067 -3.82828 -6.79516
LeftLeg  23.9046 11.4883 5.85282
LeftFoot  -0.275463 -0.519493 5.37605
LeftToes  -1.90334e-010 -8.83595e-011 4.99953e-011
2421
root  -27.3666 37.9996 -60.7811 2.55029 -1.21182 1.27258
RightUpLeg  -10.8691 -10.0804 -3.77068
RightLeg  69.0742 -1.22805 -4.3349
RightFoot  1.42961 -1.24528 11.1819
RightToes  -1.11029e-010 1.2921e-014 -6.02303e-014
Spine  -3.93286 3.12063 2.72504
Spine1  12.1352 6.11476 -11.5291
HEad  17.6738 -19.095 -4.77101
LeftShoulder1  0.437801 1.75628 -22.1746
LeftArm  -13.8895 11.9858 -42.0904
LeftForeArm  5.86864 1.86333 -7.62174
LeftHand  -0.0361773 2.27309 0.909325
RightShoulder  2.19136 7.30435 13.8478
RightArm  -6.39715 46.1456 55.2117
RightForeArm  68.2368 -0.698188 10.0798
RightHand  -0.0120741 -5.40664 -15.837
LeftUpLeg  -26.4189 -4.57311 -7.39136
LeftLeg  26.1376 10.2434 5.77135
LeftFoot  -2.79866 -0.350949 4.92236
LeftToes  -1.90334e-010 -8.83595e-011 4.99953e-011
2422
root  -27.6513 38.117 -59.6034 2.35913 0.721863 1.48981
RightUpLeg  -15.3053 -9.3543 -3.92777
RightLeg  71.3228 -1.06338 -4.41437
RightFoot  -0.68228 -0.899922 9.5754
RightToes  -1.11029e-010 1.2921e-014 -6.02303e-014
Spine  -3.59999 3.02282 2.27685
Spine1  12.1019 6.12251 -12.0126
HEad  19.3092 -20.6049 -4.24939
LeftShoulder1  0.502108 1.53854 -22.3395
LeftArm  -13.8952 10.2283 -41.305
LeftForeArm  4.49994 0.9032 -7.59
LeftHand  -0.0458778 1.99082 1.22341
RightShoulder  2.16945 7.23918 13.7586
RightArm  -6.90853 46.0887 53.5287
RightForeArm  67.7024 0.0498206 10.2283
RightHand  0.0641439 -5.97502 -15.8287
LeftUpLeg  -24.5231 -5.46114 -7.48473
LeftLeg  26.955 9.35335 5.48487
LeftFoot  -4.85165 -0.223146 4.45019
LeftToes  -1.90334e-010 -8.83595e-011 4.99953e-011
2423
root  -27.9301 38.2851 -58.4416 2.33911 2.67679 1.51331
RightUpLeg  -19.3006 -8.13838 -4.38108
RightLeg  70.0658 -0.851348 -3.43022
RightFoot  -2.49545 -0.700094 8.81367
RightToes  -1.11029e-010 1.2921e-014 -6.02303e-014
Spine  -3.29668 2.75771 1.8097
Spine1  11.8799 5.87866 -12.1789
HEad  19.8398 -21.5087 -3.55747
LeftShoulder1  0.608258 1.15859 -22.2487
LeftArm  -14.4745 8.84246 -40.9854
LeftForeArm  3.44821 0.307283 -7.3629
LeftHand  -0.0533042 1.96663 1.47631
RightShoulder  2.14562 7.24077 13.5054
RightArm  -7.7701 46.7329 52.024
RightForeArm  67.5964 -0.364543 10.0098
RightHand  0.02071 -5.64658 -16.02
LeftUpLeg  -22.4992 -6.03668 -7.3421
LeftLeg  27.0723 8.24717 4.91311
LeftFoot  -6.60235 -0.127851 4.04978
LeftToes  -1.90334e-010 -8.83595e-011 4.99953e-011
2424
root  -28.1941 38.4186 -57.2835 2.35376 4.76248 1.50012
RightUpLeg  -22.2994 -6.99607 -5.42946
RightLeg  65.7829 -0.873747 -2.76706
RightFoot  -6.05518 -0.434403 8.50038
RightToes  -1.11029e-010 1.2921e-014 -6.02303e-014
Spine  -2.80333 2.37248 1.31872
Spine1  11.3013 5.44122 -12.131
HEad  19.7676 -22.1689 -2.94196
LeftShoulder1  0.736043 0.685873 -22.0006
LeftArm  -14.7833 7.49595 -40.8868
LeftForeArm  2.24915 0.376671 -7.20876
LeftHand  -0.0586852 1.99063 1.67034
RightShoulder  2.09269 7.17962 13.0774
RightArm  -8.36395 47.2128 50.5852
RightForeArm  69.3693 -0.0589198 9.92887
RightHand  0.0558865 -5.89281 -16.3363
LeftUpLeg  -20.4395 -6.83427 -7.11291
LeftLeg  26.9672 7.43899 4.45787
LeftFoot  -8.27199 -0.0543142 3.88493
LeftToes  -1.90334e-010 -8.83595e-011 4.99953e-011
2425
root  -28.4319 38.5408 -56.1372 2.44617 6.9678 1.22491
RightUpLeg  -24.3064 -5.92906 -6.69798
RightLeg  58.5515 -1.35708 -2.85698
RightFoot  -8.51466 -0.26178 8.2461
RightToes  -1.11029e-010 1.2921e-014 -6.02303e-014
Spine  -2.2765 1.92135 1.33201
Spine1  10.5013 4.93658 -12.0357
HEad  19.4028 -22.9529 -2.626
LeftShoulder1  0.885331 0.132087 -21.7916
LeftArm  -14.808 6.06837 -40.894
LeftForeArm  1.2135 0.827537 -7.15386
LeftHand  -0.0662626 2.04036 1.95493
RightShoulder  2.03027 7.07954 12.6231
RightArm  -8.7249 47.656 48.581
RightForeArm  70.4179 0.767336 10.1673
RightHand  0.0918418 -6.1142 -17.0404
LeftUpLeg  -18.6434 -7.54473 -6.54556
LeftLeg  27.0358 6.23128 3.81127
LeftFoot  -9.84011 0.0132082 3.50936
LeftToes  -1.90334e-010 -8.83595e-011 4.99953e-011
2426
root  -28.6325 38.6736 -55.0114 2.55908 9.25769 0.521423
RightUpLeg  -24.9404 -4.08451 -7.88917
RightLeg  48.211 -2.93547 -3.84168
RightFoot  -9.23358 -0.219228 8.4847
RightToes  -1.11029e-010 1.2921e-014 -6.02303e-014
Spine  -1.58938 1.39706 2.02129
Spine1  9.33002 4.30103 -11.6662
HEad  18.9216 -23.7037 -2.50906
LeftShoulder1  1.04811 -0.495785 -21.4483
LeftArm  -14.5961 5.00222 -40.948
LeftForeArm  1.21452 1.23103 -7.21707
LeftHand  -0.0660467 2.0295 1.94286
RightShoulder  1.96012 6.94957 12.1371
RightArm  -9.10603 48.0923 46.1724
RightForeArm  70.4297 1.84841 10.5416
RightHand  0.120364 -6.2778 -17.5769
LeftUpLeg  -16.9666 -8.11587 -5.45603
LeftLeg  26.943 4.85445 3.04349
LeftFoot  -11.2542 0.0649749 3.54705
LeftToes  -1.90334e-010 -8.83595e-011 4.99953e-011
